<svg width="80" height="80" viewBox="0 0 80 80" fill="none" xmlns="http://www.w3.org/2000/svg">
<path d="M18.7507 23.7508C21.5119 23.7508 23.7506 21.512 23.7506 18.7508C23.7506 15.9896 21.5119 13.7509 18.7507 13.7509C15.9891 13.7509 13.7508 15.9896 13.7508 18.7508C13.7508 21.512 15.9891 23.7508 18.7507 23.7508ZM18.7507 16.2509C20.1311 16.2509 21.2507 17.3705 21.2507 18.7508C21.2507 20.1317 20.1311 21.2508 18.7507 21.2508C17.3699 21.2508 16.2508 20.1317 16.2508 18.7508C16.2508 17.3705 17.3699 16.2509 18.7507 16.2509Z" fill="#69B99D"/>
<path d="M17.5007 36.2505C17.5007 33.4893 15.2619 31.2506 12.5007 31.2506C9.73906 31.2506 7.50082 33.4893 7.50082 36.2505C7.50082 39.0117 9.73906 41.2504 12.5007 41.2504C15.2619 41.2504 17.5007 39.0117 17.5007 36.2505ZM10.0008 36.2505C10.0008 34.8702 11.1199 33.7506 12.5007 33.7506C13.8811 33.7506 15.0007 34.8702 15.0007 36.2505C15.0007 37.6314 13.8811 38.7505 12.5007 38.7505C11.1199 38.7505 10.0008 37.6314 10.0008 36.2505Z" fill="#69B99D"/>
<path d="M15.0007 48.7502C12.2391 48.7502 10.0008 50.989 10.0008 53.7502C10.0008 56.5114 12.2391 58.7501 15.0007 58.7501C17.7619 58.7501 20.0007 56.5114 20.0007 53.7502C20.0007 50.989 17.7619 48.7502 15.0007 48.7502ZM15.0007 56.2501C13.6199 56.2501 12.5008 55.131 12.5008 53.7502C12.5008 52.3698 13.6199 51.2502 15.0007 51.2502C16.3811 51.2502 17.5007 52.3698 17.5007 53.7502C17.5007 55.131 16.3811 56.2501 15.0007 56.2501Z" fill="#69B99D"/>
<path d="M61.2499 23.7508C64.0111 23.7508 66.2498 21.512 66.2498 18.7508C66.2498 15.9896 64.0111 13.7509 61.2499 13.7509C58.4882 13.7509 56.25 15.9896 56.25 18.7508C56.25 21.512 58.4882 23.7508 61.2499 23.7508ZM61.2499 16.2509C62.6303 16.2509 63.7499 17.3705 63.7499 18.7508C63.7499 20.1317 62.6303 21.2508 61.2499 21.2508C59.8691 21.2508 58.75 20.1317 58.75 18.7508C58.75 17.3705 59.8691 16.2509 61.2499 16.2509Z" fill="#69B99D"/>
<path d="M62.5 36.2505C62.5 39.0117 64.7382 41.2504 67.4999 41.2504C70.2611 41.2504 72.4998 39.0117 72.4998 36.2505C72.4998 33.4893 70.2611 31.2506 67.4999 31.2506C64.7382 31.2506 62.5 33.4893 62.5 36.2505ZM69.9999 36.2505C69.9999 37.6314 68.8803 38.7505 67.4999 38.7505C66.1191 38.7505 65 37.6314 65 36.2505C65 34.8702 66.1191 33.7506 67.4999 33.7506C68.8803 33.7506 69.9999 34.8702 69.9999 36.2505Z" fill="#69B99D"/>
<path d="M70.8529 45.659C75.3792 44.0526 78.1208 39.4521 77.3796 34.7066C76.6379 29.9615 72.6238 26.4162 67.8231 26.2673C71.9144 22.6907 72.3958 16.4998 68.9071 12.3339C65.4179 8.16745 59.2388 7.55467 55.0001 10.955V3.75102C55.0001 3.06109 54.4405 2.50104 53.7501 2.50104H26.2506C25.5602 2.50104 25.0006 3.06109 25.0006 3.75102V10.9736C20.7673 7.56345 14.5833 8.16843 11.0907 12.3334C7.59803 16.4989 8.08045 22.6931 12.1766 26.2673C7.37636 26.4162 3.36226 29.9615 2.62058 34.7066C1.87889 39.4521 4.62054 44.0526 9.14684 45.659C5.49602 48.2977 4.06147 53.0529 5.64543 57.2697C7.22841 61.4864 11.4383 64.1226 15.9236 63.7056C20.4084 63.2886 24.0602 59.922 24.839 55.4855C26.2564 57.4611 28.002 59.1793 30.0005 60.5655V67.5H18.7507C15.3005 67.5044 12.5042 70.2997 12.5008 73.7499V76.2498C12.5008 76.9403 13.0603 77.4998 13.7508 77.4998H66.2499C66.9403 77.4998 67.4999 76.9403 67.4999 76.2498V73.7499C67.4955 70.2997 64.6997 67.5044 61.25 67.5H50.0002V60.5655C51.9977 59.1793 53.7438 57.4611 55.1612 55.4855C55.9322 59.9327 59.5874 63.3121 64.0815 63.733C68.5751 64.1543 72.7947 61.5128 74.3777 57.2853C75.9617 53.0588 74.5174 48.2952 70.8529 45.659ZM74.9998 36.2505C74.9998 40.3925 71.6414 43.7504 67.4999 43.7504C63.3574 43.7504 60 40.3925 60 36.2505C60 32.109 63.3574 28.7506 67.4999 28.7506C71.64 28.755 74.9954 32.1099 74.9998 36.2505ZM58.6773 31.5533C58.2769 30.2936 57.7813 29.067 57.1949 27.8834C58.3716 28.4064 59.6387 28.6959 60.9258 28.7345C60.0127 29.5309 59.2505 30.4859 58.6773 31.5533ZM61.25 11.2509C65.2328 11.246 68.5258 14.3563 68.7469 18.3343C68.9681 22.3118 66.0419 25.7682 62.082 26.2057C58.1226 26.6427 54.5118 23.9084 53.86 19.9783C54.5016 19.9275 54.9962 19.3943 55.0001 18.7508V14.6263C56.3765 12.5145 58.729 11.2445 61.25 11.2509ZM52.5001 17.5008H46.2502V5.001H52.5001V17.5008ZM43.7503 5.001V17.5008H36.2504V5.001H43.7503ZM21.3224 31.5533C20.7487 30.4854 19.9865 29.5309 19.0729 28.7345C20.36 28.6954 21.6271 28.4064 22.8038 27.8834C22.2179 29.0675 21.7228 30.2945 21.3224 31.5533ZM27.5005 5.001H33.7504V17.5008H27.5005V5.001ZM11.2508 18.7508C11.2454 15.4388 13.4158 12.5165 16.5881 11.5644C19.7609 10.6127 23.1818 11.8578 25.0006 14.6263V18.7508C25.0035 19.3943 25.4991 19.9275 26.1402 19.9783C25.4786 23.8054 22.0045 26.4933 18.134 26.174C14.2639 25.8552 11.2772 22.6345 11.2508 18.7508ZM5.00091 36.2505C5.00091 32.109 8.35828 28.7506 12.5008 28.7506C16.6423 28.7506 20.0007 32.109 20.0007 36.2505C20.0007 40.3925 16.6423 43.7504 12.5008 43.7504C8.36023 43.7465 5.00433 40.391 5.00091 36.2505ZM15.0007 61.2501C10.8582 61.2501 7.50087 57.8922 7.50087 53.7502C7.50087 49.6087 10.8582 46.2503 15.0007 46.2503C19.1423 46.2503 22.5006 49.6087 22.5006 53.7502C22.4962 57.8908 19.1408 61.2462 15.0007 61.2501ZM18.3537 44.3422C19.0124 43.8651 19.612 43.3109 20.1379 42.6918C20.2272 43.6195 20.3605 44.5326 20.5387 45.431C19.8586 44.9794 19.1242 44.6136 18.3537 44.3422ZM48.0798 58.8419C47.7185 59.0714 47.4997 59.4698 47.5002 59.8976V68.75C47.5002 69.4404 48.0598 69.9999 48.7502 69.9999H61.25C63.3208 69.9999 64.9999 71.6791 64.9999 73.7499V74.9999H15.0007V73.7499C15.0007 71.6791 16.6789 69.9999 18.7507 69.9999H31.2505C31.9409 69.9999 32.5005 69.4404 32.5005 68.75V59.8927C32.5005 59.4645 32.2817 59.066 31.9199 58.8365C26.1099 55.1491 22.5006 47.9319 22.5006 40.0004C22.3747 33.5933 24.9244 27.4225 29.5352 22.9719C29.1094 25.7136 28.8467 28.4782 28.7505 31.2506C28.7505 31.941 29.3101 32.5005 30.0005 32.5005C30.6909 32.5005 31.2505 31.941 31.2505 31.2506C31.4194 27.7785 31.7954 24.319 32.3755 20.8909C32.9321 20.5593 33.5073 20.262 34.1 20.0008H34.7905C34.2016 23.7248 33.8535 27.4826 33.7504 31.2506C33.7504 31.941 34.31 32.5005 35.0004 32.5005C35.6908 32.5005 36.2504 31.941 36.2504 31.2506C36.3652 27.4821 36.7221 23.7238 37.3202 20.0008H38.7504V31.2506C38.7504 31.941 39.3099 32.5005 40.0003 32.5005C40.6908 32.5005 41.2503 31.941 41.2503 31.2506V20.0008H42.6805C43.2776 23.7238 43.6351 27.4821 43.7503 31.2506C43.7503 31.941 44.3098 32.5005 45.0003 32.5005C45.6907 32.5005 46.2502 31.941 46.2502 31.2506C46.1462 27.4826 45.7991 23.7248 45.2102 20.0008H45.8987C46.4924 20.262 47.0701 20.5593 47.6277 20.8909C48.2068 24.319 48.5818 27.7785 48.7502 31.2506C48.7502 31.941 49.3098 32.5005 50.0002 32.5005C50.6906 32.5005 51.2502 31.941 51.2502 31.2506C51.153 28.4782 50.8913 25.7136 50.465 22.9719C55.0763 27.4225 57.6251 33.5933 57.5001 40.0004C57.5001 47.9319 53.8898 55.1491 48.0798 58.8365V58.8419ZM59.8618 42.6918C60.3887 43.3109 60.9873 43.8651 61.646 44.3422C60.876 44.6136 60.1421 44.9794 59.461 45.431C59.6387 44.5331 59.7725 43.62 59.8618 42.6918ZM64.9999 61.2501C60.8574 61.2501 57.5001 57.8922 57.5001 53.7502C57.5001 49.6087 60.8574 46.2503 64.9999 46.2503C69.1415 46.2503 72.4998 49.6087 72.4998 53.7502C72.4954 57.8908 69.14 61.2462 64.9999 61.2501Z" fill="#69B99D"/>
<path d="M64.9999 48.7502C62.2382 48.7502 60 50.989 60 53.7502C60 56.5114 62.2382 58.7501 64.9999 58.7501C67.7611 58.7501 69.9998 56.5114 69.9998 53.7502C69.9998 50.989 67.7611 48.7502 64.9999 48.7502ZM64.9999 56.2501C63.6191 56.2501 62.5 55.131 62.5 53.7502C62.5 52.3698 63.6191 51.2502 64.9999 51.2502C66.3803 51.2502 67.4999 52.3698 67.4999 53.7502C67.4999 55.131 66.3803 56.2501 64.9999 56.2501Z" fill="#69B99D"/>
<path d="M37.134 37.8668C36.6457 37.3795 35.8543 37.3795 35.3665 37.8668C34.4666 38.8429 33.2005 39.3985 31.8734 39.3985C30.5457 39.3985 29.2796 38.8429 28.3798 37.8668C27.8886 37.3942 27.1093 37.4025 26.6273 37.8859C26.1464 38.3692 26.1415 39.1485 26.6166 39.6383C28.0599 41.0689 29.9925 41.8985 32.0237 41.9595C33.9729 41.9185 35.8206 41.0792 37.134 39.6383C37.3689 39.4039 37.5012 39.0851 37.5012 38.7525C37.5012 38.4205 37.3689 38.1012 37.134 37.8668Z" fill="#69B99D"/>
<path d="M53.384 37.8668C52.8957 37.3795 52.1043 37.3795 51.6165 37.8668C50.7166 38.8429 49.4505 39.3985 48.1234 39.3985C46.7957 39.3985 45.5296 38.8429 44.6298 37.8668C44.1386 37.3942 43.3593 37.4025 42.8773 37.8859C42.3964 38.3692 42.3915 39.1485 42.8666 39.6383C44.3099 41.0689 46.2425 41.8985 48.2737 41.9595C50.2229 41.9185 52.0706 41.0792 53.384 39.6383C53.6189 39.4039 53.7512 39.0851 53.7512 38.7525C53.7512 38.4205 53.6189 38.1012 53.384 37.8668Z" fill="#69B99D"/>
<path d="M44.1165 49.1167C40.1473 53.0839 36.3114 49.5366 35.8817 49.1167C35.3905 48.6441 34.6103 48.6519 34.1293 49.1348C33.6479 49.6172 33.6415 50.3974 34.1166 50.8867C35.7309 52.4882 37.8934 53.4174 40.1663 53.4858C42.3474 53.4389 44.4143 52.4994 45.884 50.8867C46.3576 50.396 46.3508 49.6167 45.8689 49.1348C45.3865 48.6524 44.6067 48.6455 44.1165 49.1191V49.1167Z" fill="#69B99D"/>
</svg>
